<svg xmlns="http://www.w3.org/2000/svg" viewBox="0 0 129.74 52.05" width="200" height="80.2"><polygon class="logo-color" points="0 34.41 0 9.51 18.62 0 18.62 42.85 0 34.41"></polygon><polygon class="logo-color" points="35.34 7.19 35.34 35.71 38.67 34.14 38.67 9.14 35.34 7.19"></polygon><path class="logo-color" d="M42.32,36.79v15h-3v-15Z"></path><path class="logo-color" d="M44.54,44.26a3.41,3.41,0,0,1,.53-1.74,3.55,3.55,0,0,1,1.17-1.11,5.16,5.16,0,0,1,1.61-.6,9,9,0,0,1,1.8-.18,13.32,13.32,0,0,1,1.65.11,5.11,5.11,0,0,1,1.54.46,2.94,2.94,0,0,1,1.13.93,2.58,2.58,0,0,1,.44,1.59v5.64a10.67,10.67,0,0,0,.09,1.41,2.44,2.44,0,0,0,.29,1h-3a4.08,4.08,0,0,1-.21-1.05,4,4,0,0,1-1.68,1,7,7,0,0,1-2,.29,5.19,5.19,0,0,1-1.45-.19,3.21,3.21,0,0,1-1.17-.58,2.8,2.8,0,0,1-.79-1,3.41,3.41,0,0,1-.28-1.45,3.09,3.09,0,0,1,.32-1.52,2.81,2.81,0,0,1,.84-1,3.75,3.75,0,0,1,1.18-.54c.44-.11.88-.21,1.33-.28s.89-.12,1.32-.17a7,7,0,0,0,1.16-.19,2,2,0,0,0,.8-.36.84.84,0,0,0,.27-.71,1.51,1.51,0,0,0-.16-.76,1.05,1.05,0,0,0-.42-.44,1.47,1.47,0,0,0-.61-.21,4.35,4.35,0,0,0-.74-.06,2.29,2.29,0,0,0-1.39.38,1.72,1.72,0,0,0-.59,1.26Zm6.89,2.21a1.33,1.33,0,0,1-.47.26c-.19.06-.39.11-.61.16l-.68.1c-.24,0-.48.06-.72.11a5.28,5.28,0,0,0-.66.16,1.91,1.91,0,0,0-.57.29,1.41,1.41,0,0,0-.39.45,1.54,1.54,0,0,0-.14.69,1.48,1.48,0,0,0,.14.67,1.22,1.22,0,0,0,.4.44,2.06,2.06,0,0,0,.59.22,4,4,0,0,0,.7.06,2.59,2.59,0,0,0,1.36-.3,1.91,1.91,0,0,0,.71-.7,2.23,2.23,0,0,0,.29-.83c0-.28,0-.5,0-.67Z"></path><path class="logo-color" d="M59.23,49.08a1.78,1.78,0,0,0,.52.57,2.14,2.14,0,0,0,.72.32,3.41,3.41,0,0,0,.85.11A3.13,3.13,0,0,0,62,50a1.9,1.9,0,0,0,.63-.23,1.27,1.27,0,0,0,.47-.42,1.05,1.05,0,0,0,.19-.66c0-.45-.29-.78-.89-1A18.93,18.93,0,0,0,59.89,47c-.43-.1-.86-.21-1.27-.34a4.49,4.49,0,0,1-1.1-.53,2.65,2.65,0,0,1-.78-.82,2.38,2.38,0,0,1-.29-1.21,3.2,3.2,0,0,1,.41-1.72,3,3,0,0,1,1.08-1.06,4.6,4.6,0,0,1,1.51-.54,9,9,0,0,1,1.72-.16,8.16,8.16,0,0,1,1.72.17,4.69,4.69,0,0,1,1.48.56,3.52,3.52,0,0,1,1.08,1.06A3.58,3.58,0,0,1,66,44.09H63.13a1.32,1.32,0,0,0-.65-1.16,3.06,3.06,0,0,0-1.39-.31l-.55,0a2.17,2.17,0,0,0-.53.14,1,1,0,0,0-.41.31.8.8,0,0,0-.17.53.83.83,0,0,0,.29.65,2.25,2.25,0,0,0,.77.41,10.39,10.39,0,0,0,1.08.29l1.24.27a12.45,12.45,0,0,1,1.27.36,4.2,4.2,0,0,1,1.1.55A2.56,2.56,0,0,1,66,47a2.51,2.51,0,0,1,.3,1.27,3.43,3.43,0,0,1-.44,1.8,3.36,3.36,0,0,1-1.12,1.16,4.5,4.5,0,0,1-1.58.62,9.21,9.21,0,0,1-1.82.18,8.73,8.73,0,0,1-1.85-.19,4.54,4.54,0,0,1-1.6-.63,3.41,3.41,0,0,1-1.65-3H59A1.67,1.67,0,0,0,59.23,49.08Z"></path><path class="logo-color" d="M74,40.92v2H71.78v5.37A1,1,0,0,0,73,49.55a3.7,3.7,0,0,0,.48,0,2.92,2.92,0,0,0,.44-.06v2.31a6.67,6.67,0,0,1-.84.08c-.3,0-.61,0-.9,0a9.09,9.09,0,0,1-1.31-.09,3,3,0,0,1-1.09-.37,1.92,1.92,0,0,1-.75-.77,2.83,2.83,0,0,1-.27-1.33v-6.4H67v-2H68.8V37.67h3v3.25Z"></path><path class="logo-color" d="M75.47,39.24V36.79h3v2.45Zm3,1.68V51.78h-3V40.92Z"></path><path class="logo-color" d="M86,42.88a2.07,2.07,0,0,0-1.2.32A2.64,2.64,0,0,0,84,44a3.58,3.58,0,0,0-.43,1.13,6.6,6.6,0,0,0-.13,1.23,6.2,6.2,0,0,0,.13,1.2A3.53,3.53,0,0,0,84,48.7a2.3,2.3,0,0,0,.77.81,2.09,2.09,0,0,0,1.17.32,2.17,2.17,0,0,0,1.65-.6,2.84,2.84,0,0,0,.73-1.61h2.87a4.89,4.89,0,0,1-1.68,3.3A5.43,5.43,0,0,1,86,52.05a5.79,5.79,0,0,1-2.23-.41A5,5,0,0,1,82,50.5a5.38,5.38,0,0,1-1.11-1.76,6.14,6.14,0,0,1-.4-2.23,7.09,7.09,0,0,1,.37-2.34,5.11,5.11,0,0,1,1.08-1.87,4.92,4.92,0,0,1,1.74-1.23A6,6,0,0,1,86,40.63a6.66,6.66,0,0,1,1.85.25,4.85,4.85,0,0,1,1.6.77,4.16,4.16,0,0,1,1.15,1.28,4.08,4.08,0,0,1,.5,1.81H88.2A2,2,0,0,0,86,42.88Z"></path><path class="logo-color" d="M93.05,36.79h6.39a7.19,7.19,0,0,1,1.39.14,3.83,3.83,0,0,1,1.43.6,3.48,3.48,0,0,1,1.1,1.28A4.59,4.59,0,0,1,103.8,41a3.83,3.83,0,0,1-1.21,3A5.17,5.17,0,0,1,99.1,45.1H94v6.68h-.93ZM94,44.3h5.27A4.36,4.36,0,0,0,101,44a3,3,0,0,0,1.12-.79,3.1,3.1,0,0,0,.61-1.07,3.69,3.69,0,0,0,.19-1.18,4.34,4.34,0,0,0-.13-1,3,3,0,0,0-.5-1.12,3.17,3.17,0,0,0-1.06-.9,3.92,3.92,0,0,0-1.82-.37H94Z"></path><path class="logo-color" d="M103.85,37.58v-.79h11.48v.79H110v14.2h-.92V37.58Z"></path><path class="logo-color" d="M115.94,48.21a3.34,3.34,0,0,1,.37-1.62,4.86,4.86,0,0,1,.93-1.24,8.16,8.16,0,0,1,1.26-1l1.35-.86-.72-.88a7.37,7.37,0,0,1-.65-.9,5,5,0,0,1-.48-1,3.1,3.1,0,0,1-.19-1.12,2.12,2.12,0,0,1,.27-1.06,2.65,2.65,0,0,1,.72-.81,3.39,3.39,0,0,1,1-.52A3.57,3.57,0,0,1,121,37a3.87,3.87,0,0,1,1.18.17,3.11,3.11,0,0,1,1,.49,2.51,2.51,0,0,1,.71.81,2.33,2.33,0,0,1,.26,1.11,3.19,3.19,0,0,1-.28,1.39,4.26,4.26,0,0,1-.73,1.06,6,6,0,0,1-1,.86l-1.1.79,3.57,4.38a7.06,7.06,0,0,0,.37-1.21,6.12,6.12,0,0,0,.14-1.28h.79a7.55,7.55,0,0,1-.24,1.62,9.7,9.7,0,0,1-.51,1.55l2.43,3h-1.07l-1.82-2.23a5.29,5.29,0,0,1-1.79,1.82,4.69,4.69,0,0,1-2.48.66,6.12,6.12,0,0,1-1.75-.24,4.25,4.25,0,0,1-1.41-.71,3.37,3.37,0,0,1-.94-1.2A3.83,3.83,0,0,1,115.94,48.21Zm.8,0a2.74,2.74,0,0,0,.31,1.32,3.18,3.18,0,0,0,.83,1,3.73,3.73,0,0,0,1.17.61,4.32,4.32,0,0,0,1.34.21A3.46,3.46,0,0,0,122,51a4.82,4.82,0,0,0,1.17-.81,4,4,0,0,0,.69-.83,2.75,2.75,0,0,0,.23-.43l-3.86-4.81-1.21.77a7.53,7.53,0,0,0-1.13.87,4.45,4.45,0,0,0-.86,1.08A2.87,2.87,0,0,0,116.74,48.21Zm3.8-5.08c.31-.2.62-.41.94-.64a6.65,6.65,0,0,0,.9-.77,3.92,3.92,0,0,0,.67-.94,2.63,2.63,0,0,0,.26-1.16,1.49,1.49,0,0,0-.21-.77,2.14,2.14,0,0,0-.53-.59,2.43,2.43,0,0,0-.75-.39,2.71,2.71,0,0,0-1.72,0,2.43,2.43,0,0,0-.75.39,2.14,2.14,0,0,0-.53.59,1.49,1.49,0,0,0-.21.77,2.52,2.52,0,0,0,.21,1,6.62,6.62,0,0,0,.5.9c.2.29.41.56.63.82A7.55,7.55,0,0,1,120.54,43.13Z"></path><path class="logo-color" d="M128.81,36.79h.93v15h-.93Z"></path><polygon class="logo-color" points="29.25 49.01 29.25 45.33 36.52 45.33 36.52 42.77 29.25 42.77 29.25 39.56 37.17 39.56 37.17 36.78 32.83 36.78 25.96 39.72 25.96 51.78 37.34 51.78 37.34 49.01 29.25 49.01"></polygon></svg>